<svg width="107" height="24" viewBox="0 0 107 24" fill="none" xmlns="http://www.w3.org/2000/svg">
<g clip-path="url(#clip0_25_1264)">
<path d="M103.247 1.87528e-06C102.588 -0.000559439 101.947 0.207611 101.414 0.59459C100.882 0.981569 100.486 1.52742 100.283 2.15369L93.3458 23.4995H99.9009L106.21 4.08595C106.364 3.61785 106.404 3.12002 106.328 2.63333C106.252 2.14664 106.061 1.68496 105.772 1.28618C105.483 0.887411 105.103 0.562916 104.664 0.339335C104.225 0.115753 103.739 -0.000538593 103.247 1.87528e-06V1.87528e-06Z" fill="white"/>
<path d="M57.8949 0.476196H37.3559L35.4843 6.23959H49.8473L31.3438 18.7158C31.0311 18.9277 30.7632 19.1992 30.5554 19.5146C30.3476 19.8301 30.204 20.1834 30.1327 20.5544C30.0614 20.9253 30.0639 21.3067 30.1401 21.6767C30.2162 22.0467 30.3644 22.3981 30.5764 22.7108C30.7883 23.0235 31.0597 23.2914 31.3752 23.4992C31.6906 23.707 32.0439 23.8506 32.4149 23.9219C32.7859 23.9931 33.1672 23.9906 33.5372 23.9145C33.9072 23.8384 34.2586 23.6901 34.5713 23.4782L53.2235 10.8897L49.1284 23.4995H55.6835L61.5319 5.49642C61.7188 4.92165 61.7673 4.31083 61.6732 3.71377C61.5792 3.11672 61.3453 2.55036 60.9907 2.0609C60.6361 1.57144 60.1708 1.17275 59.6328 0.897343C59.0948 0.621941 58.4993 0.477632 57.8949 0.476196V0.476196Z" fill="#00C7B1"/>
<path d="M7.48028 0.476196L0 23.4995H6.5551L12.1638 6.23656H25.5561L16.4378 12.3882C15.7941 12.8094 15.3409 13.4659 15.1753 14.2172C15.0097 14.9685 15.145 15.7547 15.5521 16.4074C15.7609 16.7262 16.031 17.0004 16.3467 17.214C16.6624 17.4276 17.0173 17.5764 17.3909 17.6517C17.7645 17.7271 18.1494 17.7275 18.5231 17.6529C18.8969 17.5783 19.2521 17.4303 19.5682 17.2173L30.9312 9.55203C34.9869 6.822 33.0546 0.479231 28.1557 0.482264L7.48028 0.476196Z" fill="white"/>
<path d="M89.9697 0.482301H69.2973L61.817 23.5056H68.3721L73.9808 6.24266H87.3731L75.5218 14.2356L82.8504 22.9777C83.3482 23.5382 84.045 23.8823 84.7926 23.937C85.5401 23.9917 86.2796 23.7526 86.8536 23.2706C87.4277 22.7886 87.7911 22.1017 87.8666 21.3559C87.9421 20.6101 87.7237 19.8643 87.2579 19.277L84.0364 15.4338L92.7452 9.55813C96.8039 6.81597 94.8656 0.479268 89.9697 0.482301Z" fill="white"/>
</g>
<defs>
<clipPath id="clip0_25_1264">
<rect width="106.365" height="24" fill="white"/>
</clipPath>
</defs>
</svg>
